<svg id="Layer_1" data-name="Layer 1" xmlns="http://www.w3.org/2000/svg" viewBox="0 0 74 80"><defs><style>.cls-1{stroke:#000;stroke-miterlimit:10;}</style></defs><title>icons</title><path class="cls-1" d="M13.18,6.73c4.46,0,7.2,2.74,7.29,6.61s-2.73,6.56-7.36,6.56c-4.41,0-7.31-2.78-7.31-6.56s2.9-6.61,7.38-6.61M52.52,26.05c8.63,0,14.58,5,14.58,17.39V69.8H55.45V45.33c0-5.42-3.35-9.12-8.1-9.12a8.37,8.37,0,0,0-7.55,4.9,9.41,9.41,0,0,0-.43,3.28V69.8H27.7V27.53H38.13L39,32.11c1.72-2.75,6.46-6.06,13.53-6.06M18.93,27.53V69.8H7.23V27.53H18.93M13.18,3.83c-6,0-10.28,4-10.28,9.51S7.18,22.8,13.1,22.8s10.26-3.87,10.26-9.46V13.28C23.19,7.7,19,3.83,13.18,3.83h0ZM52.52,23.15A21.26,21.26,0,0,0,40.8,26.4a2.9,2.9,0,0,0-2.67-1.77H27.7a2.9,2.9,0,0,0-2.9,2.9V69.8a2.9,2.9,0,0,0,2.9,2.9H39.37a2.9,2.9,0,0,0,2.9-2.9V44.39a6.56,6.56,0,0,1,.24-2.2,5.51,5.51,0,0,1,4.83-3.08c3.16,0,5.2,2.44,5.2,6.22V69.8a2.9,2.9,0,0,0,2.9,2.9H67.1A2.9,2.9,0,0,0,70,69.8V43.47c0-12.91-6.37-20.29-17.48-20.29h0v0ZM18.93,24.63H7.23a2.9,2.9,0,0,0-2.9,2.9V69.8a2.9,2.9,0,0,0,2.9,2.9H18.93a2.9,2.9,0,0,0,2.9-2.9V27.53a2.9,2.9,0,0,0-2.9-2.9h0Z"/></svg>