<svg id="Layer_1" data-name="Layer 1" xmlns="http://www.w3.org/2000/svg" viewBox="0 0 74 80"><title>icons</title><path d="M54.58,75.89c-11.2,0-26.19-8.55-36.46-20.79C7.6,42.57,1.79,25.57,4.3,14.69c0.57-2.47,6-6.88,10.54-10.16a5.67,5.67,0,0,1,3.58-1.27A5.49,5.49,0,0,1,22.64,5.2l0.23,0.27,6.46,17.13a7.16,7.16,0,0,1-1.73,8.07l-4.43,3.71c-0.08,1.44,1,4.53,3.92,8.57,4.09,5.73,9.79,10.61,12.74,11l4.31-3.62a6.35,6.35,0,0,1,4.15-1.47,8.12,8.12,0,0,1,3.84,1l15.72,9.22,0.23,0.28a5.57,5.57,0,0,1-.61,7.78c-4,3.93-9.3,8.61-11.83,8.73ZM8.37,15.71c-2.19,9.71,3.25,25.12,13,36.7,9.38,11.18,23.36,19.29,33.25,19.29l0.76,0c1.31-.4,5.8-4.22,9.24-7.6L64.7,64A1.38,1.38,0,0,0,65,62.28l-15-8.78A3.86,3.86,0,0,0,48.28,53a2.24,2.24,0,0,0-1.45.49L41.47,58l-0.62.07a5.94,5.94,0,0,1-.69,0h0c-5.07,0-12.09-6.61-16.47-12.74-2.22-3.11-5.74-8.9-4.39-12.81,0.21-.6.21-0.6,5.62-5.11a3.06,3.06,0,0,0,.58-3.19l-0.06-.13L19.23,7.71a1.33,1.33,0,0,0-.81-0.27,1.48,1.48,0,0,0-.95.35l-0.11.09C13.48,10.71,9,14.5,8.37,15.71Z"/></svg>